<?xml version="1.0" encoding="UTF-8"?>
<svg width="470px" height="197px" viewBox="0 0 470 197" version="1.1" xmlns="http://www.w3.org/2000/svg" xmlns:xlink="http://www.w3.org/1999/xlink">
    <!-- Generator: Sketch 50.2 (55047) - http://www.bohemiancoding.com/sketch -->
    <title>logo</title>
    <desc>Created with Sketch.</desc>
    <defs></defs>
    <g id="Symbols" stroke="none" stroke-width="1" fill="none" fill-rule="evenodd">
        <g id="logo" transform="translate(-2.000000, 0.000000)">
            <g transform="translate(2.000000, 0.000000)">
                <g id="Group-Copy-10" transform="translate(18.000000, 0.000000)" opacity="0.8">
                    <rect id="Rectangle" fill="#50E3C2" x="119" y="13" width="106" height="102"></rect>
                    <circle id="Oval" fill="#F8E71C" cx="287" cy="50" r="49"></circle>
                    <polygon id="Triangle" fill="#FF0582" points="57 0 114 98 0 98"></polygon>
                </g>
                <path d="M29.552,144.096 C28.1866598,142.986661 26.8213402,142.165336 25.456,141.632 C24.0906598,141.098664 22.7680064,140.832 21.488,140.832 C19.8666586,140.832 18.5440051,141.215996 17.52,141.984 C16.4959949,142.752004 15.984,143.75466 15.984,144.992 C15.984,145.845338 16.2399974,146.549331 16.752,147.104 C17.2640026,147.658669 17.9359958,148.138665 18.768,148.544 C19.6000042,148.949335 20.5386614,149.301332 21.584,149.6 C22.6293386,149.898668 23.6639949,150.218665 24.688,150.56 C28.7840205,151.92534 31.7813238,153.749322 33.68,156.032 C35.5786762,158.314678 36.528,161.290648 36.528,164.96 C36.528,167.434679 36.1120042,169.674657 35.28,171.68 C34.4479958,173.685343 33.232008,175.40266 31.632,176.832 C30.031992,178.26134 28.069345,179.370663 25.744,180.16 C23.418655,180.949337 20.7840147,181.344 17.84,181.344 C11.7386362,181.344 6.08535936,179.530685 0.88,175.904 L6.256,165.792 C8.13334272,167.456008 9.98932416,168.693329 11.824,169.504 C13.6586758,170.314671 15.471991,170.72 17.264,170.72 C19.3120102,170.72 20.8373283,170.250671 21.84,169.312 C22.8426717,168.373329 23.344,167.306673 23.344,166.112 C23.344,165.386663 23.2160013,164.757336 22.96,164.224 C22.7039987,163.690664 22.2773363,163.200002 21.68,162.752 C21.0826637,162.303998 20.3040048,161.888002 19.344,161.504 C18.3839952,161.119998 17.2213402,160.693336 15.856,160.224 C14.2346586,159.711997 12.6453411,159.14667 11.088,158.528 C9.53065888,157.90933 8.14400608,157.088005 6.928,156.064 C5.71199392,155.039995 4.7306704,153.749341 3.984,152.192 C3.2373296,150.634659 2.864,148.661345 2.864,146.272 C2.864,143.882655 3.25866272,141.717343 4.048,139.776 C4.83733728,137.834657 5.94665952,136.170674 7.376,134.784 C8.80534048,133.397326 10.5546563,132.320004 12.624,131.552 C14.6933437,130.783996 17.0079872,130.4 19.568,130.4 C21.9573453,130.4 24.4533203,130.730663 27.056,131.392 C29.6586797,132.053337 32.1546547,133.023994 34.544,134.304 L29.552,144.096 Z M54.396,147.168 L54.396,180 L42.812,180 L42.812,147.168 L54.396,147.168 Z M42.044,134.56 C42.044,133.663996 42.214665,132.821337 42.556,132.032 C42.897335,131.242663 43.3666637,130.549336 43.964,129.952 C44.5613363,129.354664 45.2546627,128.885335 46.044,128.544 C46.8333373,128.202665 47.6759955,128.032 48.572,128.032 C49.4680045,128.032 50.3106627,128.202665 51.1,128.544 C51.8893373,128.885335 52.5826637,129.354664 53.18,129.952 C53.7773363,130.549336 54.246665,131.242663 54.588,132.032 C54.929335,132.821337 55.1,133.663996 55.1,134.56 C55.1,135.456004 54.929335,136.298663 54.588,137.088 C54.246665,137.877337 53.7773363,138.570664 53.18,139.168 C52.5826637,139.765336 51.8893373,140.234665 51.1,140.576 C50.3106627,140.917335 49.4680045,141.088 48.572,141.088 C47.6759955,141.088 46.8333373,140.917335 46.044,140.576 C45.2546627,140.234665 44.5613363,139.765336 43.964,139.168 C43.3666637,138.570664 42.897335,137.877337 42.556,137.088 C42.214665,136.298663 42.044,135.456004 42.044,134.56 Z M61.832,147.168 L73.416,147.168 L73.416,151.2 C76.5733491,148.170652 80.114647,146.656 84.04,146.656 C88.9040243,146.656 92.6159872,148.70398 95.176,152.8 C97.7786797,148.661313 101.490643,146.592 106.312,146.592 C107.848008,146.592 109.29866,146.815998 110.664,147.264 C112.02934,147.712002 113.202662,148.415995 114.184,149.376 C115.165338,150.336005 115.943997,151.583992 116.52,153.12 C117.096003,154.656008 117.384,156.511989 117.384,158.688 L117.384,180 L105.8,180 L105.8,163.808 C105.8,162.143992 105.682668,160.778672 105.448,159.712 C105.213332,158.645328 104.872002,157.813336 104.424,157.216 C103.975998,156.618664 103.453336,156.213334 102.856,156 C102.258664,155.786666 101.61867,155.68 100.936,155.68 C97.2239814,155.68 95.368,158.389306 95.368,163.808 L95.368,180 L83.784,180 L83.784,163.808 C83.784,162.143992 83.6773344,160.768005 83.464,159.68 C83.2506656,158.591995 82.9413354,157.728003 82.536,157.088 C82.1306646,156.447997 81.6080032,156.010668 80.968,155.776 C80.3279968,155.541332 79.5813376,155.424 78.728,155.424 C78.002663,155.424 77.3200032,155.530666 76.68,155.744 C76.0399968,155.957334 75.4746691,156.37333 74.984,156.992 C74.4933309,157.61067 74.1093347,158.463995 73.832,159.552 C73.5546653,160.640005 73.416,162.058658 73.416,163.808 L73.416,180 L61.832,180 L61.832,147.168 Z M152.148,163.68 C152.148,162.655995 151.966668,161.685338 151.604,160.768 C151.241332,159.850662 150.71867,159.05067 150.036,158.368 C149.35333,157.68533 148.553338,157.141335 147.636,156.736 C146.718662,156.330665 145.726672,156.128 144.66,156.128 C143.635995,156.128 142.676004,156.319998 141.78,156.704 C140.883996,157.088002 140.105337,157.62133 139.444,158.304 C138.782663,158.98667 138.249335,159.786662 137.844,160.704 C137.438665,161.621338 137.236,162.591995 137.236,163.616 C137.236,164.640005 137.427998,165.599996 137.812,166.496 C138.196002,167.392004 138.72933,168.170663 139.412,168.832 C140.09467,169.493337 140.894662,170.026665 141.812,170.432 C142.729338,170.837335 143.699995,171.04 144.724,171.04 C145.748005,171.04 146.707996,170.848002 147.604,170.464 C148.500004,170.079998 149.278663,169.54667 149.94,168.864 C150.601337,168.18133 151.134665,167.392004 151.54,166.496 C151.945335,165.599996 152.148,164.661338 152.148,163.68 Z M137.556,196.384 L125.972,196.384 L125.972,147.168 L137.556,147.168 L137.556,150.816 C140.030679,147.701318 143.401312,146.144 147.668,146.144 C150.014678,146.144 152.201323,146.602662 154.228,147.52 C156.254677,148.437338 158.014659,149.685325 159.508,151.264 C161.001341,152.842675 162.163996,154.698656 162.996,156.832 C163.828004,158.965344 164.244,161.247988 164.244,163.68 C164.244,166.112012 163.828004,168.373323 162.996,170.464 C162.163996,172.554677 161.012007,174.389325 159.54,175.968 C158.067993,177.546675 156.329343,178.783996 154.324,179.68 C152.318657,180.576004 150.142678,181.024 147.796,181.024 C143.69998,181.024 140.28668,179.616014 137.556,176.8 L137.556,196.384 Z M181.92,126.88 L181.92,180 L170.336,180 L170.336,126.88 L181.92,126.88 Z M213.356,158.816 C212.971998,157.194659 212.182673,155.893338 210.988,154.912 C209.793327,153.930662 208.342675,153.44 206.636,153.44 C204.843991,153.44 203.382672,153.909329 202.252,154.848 C201.121328,155.786671 200.406668,157.109325 200.108,158.816 L213.356,158.816 Z M199.788,165.536 C199.788,170.528025 202.134643,173.024 206.828,173.024 C209.345346,173.024 211.243994,172.00001 212.524,169.952 L223.724,169.952 C221.462655,177.461371 215.809379,181.216 206.764,181.216 C203.990653,181.216 201.452012,180.800004 199.148,179.968 C196.843988,179.135996 194.870675,177.952008 193.228,176.416 C191.585325,174.879992 190.316004,173.045344 189.42,170.912 C188.523996,168.778656 188.076,166.389347 188.076,163.744 C188.076,161.01332 188.502662,158.549344 189.356,156.352 C190.209338,154.154656 191.425325,152.288008 193.004,150.752 C194.582675,149.215992 196.491989,148.032004 198.732,147.2 C200.972011,146.367996 203.499986,145.952 206.316,145.952 C209.089347,145.952 211.585322,146.367996 213.804,147.2 C216.022678,148.032004 217.899992,149.237325 219.436,150.816 C220.972008,152.394675 222.145329,154.325322 222.956,156.608 C223.766671,158.890678 224.172,161.461319 224.172,164.32 L224.172,165.536 L199.788,165.536 Z M257.848,144.096 C256.48266,142.986661 255.11734,142.165336 253.752,141.632 C252.38666,141.098664 251.064006,140.832 249.784,140.832 C248.162659,140.832 246.840005,141.215996 245.816,141.984 C244.791995,142.752004 244.28,143.75466 244.28,144.992 C244.28,145.845338 244.535997,146.549331 245.048,147.104 C245.560003,147.658669 246.231996,148.138665 247.064,148.544 C247.896004,148.949335 248.834661,149.301332 249.88,149.6 C250.925339,149.898668 251.959995,150.218665 252.984,150.56 C257.08002,151.92534 260.077324,153.749322 261.976,156.032 C263.874676,158.314678 264.824,161.290648 264.824,164.96 C264.824,167.434679 264.408004,169.674657 263.576,171.68 C262.743996,173.685343 261.528008,175.40266 259.928,176.832 C258.327992,178.26134 256.365345,179.370663 254.04,180.16 C251.714655,180.949337 249.080015,181.344 246.136,181.344 C240.034636,181.344 234.381359,179.530685 229.176,175.904 L234.552,165.792 C236.429343,167.456008 238.285324,168.693329 240.12,169.504 C241.954676,170.314671 243.767991,170.72 245.56,170.72 C247.60801,170.72 249.133328,170.250671 250.136,169.312 C251.138672,168.373329 251.64,167.306673 251.64,166.112 C251.64,165.386663 251.512001,164.757336 251.256,164.224 C250.999999,163.690664 250.573336,163.200002 249.976,162.752 C249.378664,162.303998 248.600005,161.888002 247.64,161.504 C246.679995,161.119998 245.51734,160.693336 244.152,160.224 C242.530659,159.711997 240.941341,159.14667 239.384,158.528 C237.826659,157.90933 236.440006,157.088005 235.224,156.064 C234.007994,155.039995 233.02667,153.749341 232.28,152.192 C231.53333,150.634659 231.16,148.661345 231.16,146.272 C231.16,143.882655 231.554663,141.717343 232.344,139.776 C233.133337,137.834657 234.24266,136.170674 235.672,134.784 C237.10134,133.397326 238.850656,132.320004 240.92,131.552 C242.989344,130.783996 245.303987,130.4 247.864,130.4 C250.253345,130.4 252.74932,130.730663 255.352,131.392 C257.95468,132.053337 260.450655,133.023994 262.84,134.304 L257.848,144.096 Z M271.108,126.88 L282.692,126.88 L282.692,151.328 C284.270675,149.40799 285.870659,148.117337 287.492,147.456 C289.113341,146.794663 291.011989,146.464 293.188,146.464 C297.326687,146.464 300.451989,147.605322 302.564,149.888 C304.676011,152.170678 305.732,155.253314 305.732,159.136 L305.732,180 L294.148,180 L294.148,163.424 C294.148,161.759992 294.020001,160.416005 293.764,159.392 C293.507999,158.367995 293.081336,157.578669 292.484,157.024 C291.459995,156.127996 290.222674,155.68 288.772,155.68 C286.809324,155.68 285.305339,156.266661 284.26,157.44 C283.214661,158.613339 282.692,160.287989 282.692,162.464 L282.692,180 L271.108,180 L271.108,126.88 Z M323.856,163.488 C323.856,164.554672 324.047998,165.546662 324.432,166.464 C324.816002,167.381338 325.338663,168.18133 326,168.864 C326.661337,169.54667 327.450662,170.079998 328.368,170.464 C329.285338,170.848002 330.277328,171.04 331.344,171.04 C332.368005,171.04 333.338662,170.848002 334.256,170.464 C335.173338,170.079998 335.962663,169.54667 336.624,168.864 C337.285337,168.18133 337.818665,167.392004 338.224,166.496 C338.629335,165.599996 338.832,164.640005 338.832,163.616 C338.832,162.591995 338.629335,161.621338 338.224,160.704 C337.818665,159.786662 337.285337,158.98667 336.624,158.304 C335.962663,157.62133 335.173338,157.088002 334.256,156.704 C333.338662,156.319998 332.368005,156.128 331.344,156.128 C330.277328,156.128 329.285338,156.319998 328.368,156.704 C327.450662,157.088002 326.661337,157.62133 326,158.304 C325.338663,158.98667 324.816002,159.765329 324.432,160.64 C324.047998,161.514671 323.856,162.463995 323.856,163.488 Z M338.448,147.168 L350.096,147.168 L350.096,180 L338.448,180 L338.448,176.352 C335.973321,179.466682 332.624021,181.024 328.4,181.024 C326.010655,181.024 323.813343,180.586671 321.808,179.712 C319.802657,178.837329 318.053341,177.610675 316.56,176.032 C315.066659,174.453325 313.904004,172.597344 313.072,170.464 C312.239996,168.330656 311.824,166.005346 311.824,163.488 C311.824,161.141322 312.229329,158.912011 313.04,156.8 C313.850671,154.687989 314.981326,152.842675 316.432,151.264 C317.882674,149.685325 319.610657,148.437338 321.616,147.52 C323.621343,146.602662 325.839988,146.144 328.272,146.144 C332.36802,146.144 335.759987,147.573319 338.448,150.432 L338.448,147.168 Z M383.644,163.68 C383.644,162.655995 383.462668,161.685338 383.1,160.768 C382.737332,159.850662 382.21467,159.05067 381.532,158.368 C380.84933,157.68533 380.049338,157.141335 379.132,156.736 C378.214662,156.330665 377.222672,156.128 376.156,156.128 C375.131995,156.128 374.172004,156.319998 373.276,156.704 C372.379996,157.088002 371.601337,157.62133 370.94,158.304 C370.278663,158.98667 369.745335,159.786662 369.34,160.704 C368.934665,161.621338 368.732,162.591995 368.732,163.616 C368.732,164.640005 368.923998,165.599996 369.308,166.496 C369.692002,167.392004 370.22533,168.170663 370.908,168.832 C371.59067,169.493337 372.390662,170.026665 373.308,170.432 C374.225338,170.837335 375.195995,171.04 376.22,171.04 C377.244005,171.04 378.203996,170.848002 379.1,170.464 C379.996004,170.079998 380.774663,169.54667 381.436,168.864 C382.097337,168.18133 382.630665,167.392004 383.036,166.496 C383.441335,165.599996 383.644,164.661338 383.644,163.68 Z M369.052,196.384 L357.468,196.384 L357.468,147.168 L369.052,147.168 L369.052,150.816 C371.526679,147.701318 374.897312,146.144 379.164,146.144 C381.510678,146.144 383.697323,146.602662 385.724,147.52 C387.750677,148.437338 389.510659,149.685325 391.004,151.264 C392.497341,152.842675 393.659996,154.698656 394.492,156.832 C395.324004,158.965344 395.74,161.247988 395.74,163.68 C395.74,166.112012 395.324004,168.373323 394.492,170.464 C393.659996,172.554677 392.508007,174.389325 391.036,175.968 C389.563993,177.546675 387.825343,178.783996 385.82,179.68 C383.814657,180.576004 381.638678,181.024 379.292,181.024 C375.19598,181.024 371.78268,179.616014 369.052,176.8 L369.052,196.384 Z M425.832,158.816 C425.447998,157.194659 424.658673,155.893338 423.464,154.912 C422.269327,153.930662 420.818675,153.44 419.112,153.44 C417.319991,153.44 415.858672,153.909329 414.728,154.848 C413.597328,155.786671 412.882668,157.109325 412.584,158.816 L425.832,158.816 Z M412.264,165.536 C412.264,170.528025 414.610643,173.024 419.304,173.024 C421.821346,173.024 423.719994,172.00001 425,169.952 L436.2,169.952 C433.938655,177.461371 428.285379,181.216 419.24,181.216 C416.466653,181.216 413.928012,180.800004 411.624,179.968 C409.319988,179.135996 407.346675,177.952008 405.704,176.416 C404.061325,174.879992 402.792004,173.045344 401.896,170.912 C400.999996,168.778656 400.552,166.389347 400.552,163.744 C400.552,161.01332 400.978662,158.549344 401.832,156.352 C402.685338,154.154656 403.901325,152.288008 405.48,150.752 C407.058675,149.215992 408.967989,148.032004 411.208,147.2 C413.448011,146.367996 415.975986,145.952 418.792,145.952 C421.565347,145.952 424.061322,146.367996 426.28,147.2 C428.498678,148.032004 430.375992,149.237325 431.912,150.816 C433.448008,152.394675 434.621329,154.325322 435.432,156.608 C436.242671,158.890678 436.648,161.461319 436.648,164.32 L436.648,165.536 L412.264,165.536 Z M464.5,155.616 C462.366656,154.506661 460.27601,153.952 458.228,153.952 C457.161328,153.952 456.297337,154.165331 455.636,154.592 C454.974663,155.018669 454.644,155.594663 454.644,156.32 C454.644,156.704002 454.697333,157.013332 454.804,157.248 C454.910667,157.482668 455.145332,157.706666 455.508,157.92 C455.870668,158.133334 456.403996,158.325332 457.108,158.496 C457.812004,158.666668 458.739994,158.879999 459.892,159.136 C463.092016,159.776003 465.481325,160.917325 467.06,162.56 C468.638675,164.202675 469.428,166.303987 469.428,168.864 C469.428,170.78401 469.044004,172.511992 468.276,174.048 C467.507996,175.584008 466.44134,176.874661 465.076,177.92 C463.71066,178.965339 462.06801,179.775997 460.148,180.352 C458.22799,180.928003 456.116012,181.216 453.812,181.216 C449.374644,181.216 445.001355,179.957346 440.692,177.44 L444.916,169.248 C448.158683,171.466678 451.230652,172.576 454.132,172.576 C455.198672,172.576 456.07333,172.341336 456.756,171.872 C457.43867,171.402664 457.78,170.805337 457.78,170.08 C457.78,169.653331 457.726667,169.301335 457.62,169.024 C457.513333,168.746665 457.289335,168.490668 456.948,168.256 C456.606665,168.021332 456.105337,167.808001 455.444,167.616 C454.782663,167.423999 453.918672,167.221334 452.852,167.008 C449.267982,166.282663 446.76134,165.20534 445.332,163.776 C443.90266,162.34666 443.188,160.373346 443.188,157.856 C443.188,156.021324 443.52933,154.368007 444.212,152.896 C444.89467,151.423993 445.875994,150.176005 447.156,149.152 C448.436006,148.127995 449.982658,147.338669 451.796,146.784 C453.609342,146.229331 455.625322,145.952 457.844,145.952 C461.470685,145.952 464.99065,146.655993 468.404,148.064 L464.5,155.616 Z" id="SimpleShapes" fill="#333333"></path>
                <g id="Group-Copy-11" transform="translate(9.000000, 3.000000)" opacity="0.8" stroke="#000000" stroke-width="5">
                    <rect id="Rectangle" x="122.5" y="2.5" width="101" height="97"></rect>
                    <circle id="Oval" cx="288" cy="56" r="49"></circle>
                    <polygon id="Triangle" points="57 5 114 103 0 103"></polygon>
                </g>
            </g>
        </g>
    </g>
</svg>