<svg id="Layer_1" data-name="Layer 1" xmlns="http://www.w3.org/2000/svg" viewBox="0 0 215.11 89.83"><defs><style>.cls-1{opacity:0.8;}.cls-2{fill:#50e3c2;}.cls-3{fill:#f8e71c;}.cls-4{fill:#ff0582;fill-rule:evenodd;}.cls-5{isolation:isolate;}.cls-6{fill:#212121;}.cls-7{fill:none;stroke:#000;stroke-width:5px;}</style></defs><title>logo2</title><g id="Page-1"><g id="Desktop-Copy-2"><g id="logo"><g id="logo-copy-2"><g id="Group-Copy-10" class="cls-1"><rect id="Rectangle" class="cls-2" x="63.49" y="7.28" width="48.97" height="47.12"/><ellipse id="Oval" class="cls-3" cx="141.11" cy="24.37" rx="22.64" ry="22.63"/><polygon id="Triangle" class="cls-4" points="34.84 1.28 61.18 46.55 8.51 46.55 34.84 1.28"/></g><g id="SimpleShapes" class="cls-5"><g class="cls-5"><path class="cls-6" d="M10.71,69.28c-.24-1.59-.9-2.16-2-2.16a1.85,1.85,0,0,0-1.95,1.74c0,1.32,1.2,1.92,3.63,3,4.89,2.1,6.12,3.87,6.12,6.78,0,4.29-2.94,6.81-7.74,6.81s-8-2.52-8-7.29v-.48H6.39c0,1.83.93,3,2.34,3a2.12,2.12,0,0,0,2.13-2.13c0-1.77-2.46-2.55-4.47-3.36-3.63-1.47-5.28-3.39-5.28-6.27,0-3.78,3.66-6.54,7.74-6.54a8.44,8.44,0,0,1,3.93.93,6.08,6.08,0,0,1,3.54,6Z" transform="translate(-0.74 -0.72)"/><path class="cls-6" d="M19,66.58V62.8h5v3.78ZM19,85V68.35h5V85Z" transform="translate(-0.74 -0.72)"/><path class="cls-6" d="M48.15,85V76c0-2.61-.84-3.57-2.55-3.57-1.89,0-2.76,1.14-2.76,3.33V85h-5V75.82c0-2.16-.78-3.36-2.49-3.36-1.95,0-2.82,1.26-2.82,3.57v9h-5V68.35h4.65v1.77h.06a4.86,4.86,0,0,1,4.59-2.34,5.26,5.26,0,0,1,4.8,3,6,6,0,0,1,5.28-3c3.72,0,6.18,2.28,6.18,6.93V85Z" transform="translate(-0.74 -0.72)"/><path class="cls-6" d="M56.64,90.55V68.35h4.68v1.83h.09a6.41,6.41,0,0,1,5.22-2.4c4.74,0,8.1,3.87,8.1,9.06,0,4.74-3.33,8.73-8.1,8.73a6.47,6.47,0,0,1-5-2.07v7ZM69.75,76.69a4.17,4.17,0,1,0-4.17,4.23A4.19,4.19,0,0,0,69.75,76.69Z" transform="translate(-0.74 -0.72)"/><path class="cls-6" d="M77.25,85V62.8h5V85Z" transform="translate(-0.74 -0.72)"/><path class="cls-6" d="M89.85,78.19a3.73,3.73,0,0,0,3.9,3.15,3.5,3.5,0,0,0,3-1.56h5.1c-1.59,3.63-4.62,5.76-8.13,5.76a8.88,8.88,0,1,1,8.7-8.67,6.36,6.36,0,0,1-.12,1.32Zm7.62-3.36a3.93,3.93,0,0,0-7.56,0Z" transform="translate(-0.74 -0.72)"/><path class="cls-6" d="M114.12,69.28c-.24-1.59-.9-2.16-2-2.16a1.85,1.85,0,0,0-2,1.74c0,1.32,1.2,1.92,3.63,3,4.89,2.1,6.12,3.87,6.12,6.78,0,4.29-2.94,6.81-7.74,6.81s-8-2.52-8-7.29v-.48h5.64c0,1.83.93,3,2.34,3a2.12,2.12,0,0,0,2.13-2.13c0-1.77-2.46-2.55-4.47-3.36-3.63-1.47-5.28-3.39-5.28-6.27,0-3.78,3.66-6.54,7.74-6.54a8.44,8.44,0,0,1,3.93.93,6.08,6.08,0,0,1,3.54,6Z" transform="translate(-0.74 -0.72)"/><path class="cls-6" d="M132.84,85V75.85c0-2.16-.84-3.39-2.67-3.39s-2.79,1.11-2.79,3.18V85h-5V62.8h5v7.14a4.7,4.7,0,0,1,4.32-2.16c3.81,0,6.12,2.4,6.12,6.75V85Z" transform="translate(-0.74 -0.72)"/><path class="cls-6" d="M153.87,85V83.2h-.06c-.72,1.47-2.7,2.37-4.89,2.37-4.92,0-8.34-3.87-8.34-8.91s3.57-8.88,8.34-8.88a5.64,5.64,0,0,1,4.89,2.34h.06V68.35h5V85Zm0-8.34a4.23,4.23,0,0,0-4.23-4.23,4.25,4.25,0,1,0,4.23,4.23Z" transform="translate(-0.74 -0.72)"/><path class="cls-6" d="M163.08,90.55V68.35h4.68v1.83h.09a6.41,6.41,0,0,1,5.22-2.4c4.74,0,8.1,3.87,8.1,9.06,0,4.74-3.33,8.73-8.1,8.73a6.47,6.47,0,0,1-5-2.07v7Zm13.11-13.86A4.17,4.17,0,1,0,172,80.92,4.19,4.19,0,0,0,176.19,76.69Z" transform="translate(-0.74 -0.72)"/><path class="cls-6" d="M188,78.19a3.73,3.73,0,0,0,3.9,3.15,3.5,3.5,0,0,0,3-1.56H200c-1.59,3.63-4.62,5.76-8.13,5.76a8.88,8.88,0,1,1,8.7-8.67,6.36,6.36,0,0,1-.12,1.32Zm7.62-3.36a3.93,3.93,0,0,0-7.56,0Z" transform="translate(-0.74 -0.72)"/><path class="cls-6" d="M210.45,73c0-1-.72-1.26-1.53-1.26s-1.44.48-1.44,1.11c0,.9.81,1.35,3.12,2,4,1,5.25,2.64,5.25,5.07,0,3.48-3,5.67-6.78,5.67s-6.42-2.13-6.78-5.52h5a1.72,1.72,0,0,0,1.89,1.53c.87,0,1.74-.51,1.74-1.29,0-.93-.57-1.41-3.06-2.19-4.2-1.29-5.31-2.94-5.31-4.89,0-3.3,3.09-5.43,6.45-5.43,3.6,0,6.15,2,6.39,5.25Z" transform="translate(-0.74 -0.72)"/></g></g><g id="Group-Copy-11" class="cls-1"><rect class="cls-7" x="62.29" y="5.16" width="43.97" height="42.12"/><ellipse class="cls-7" cx="137.41" cy="28.53" rx="22.64" ry="22.63"/><polygon class="cls-7" points="30.68 4.97 57.02 50.24 4.35 50.24 30.68 4.97"/></g></g></g></g></g></svg>